<svg width="512" height="512" viewBox="0 0 512 512" fill="none" xmlns="http://www.w3.org/2000/svg">
<path d="M268.627 302.874C267.184 304.776 265.02 306 262.595 306C262.357 306 262.121 305.984 261.887 305.96C261.486 305.912 261.267 305.878 261.05 305.83C260.781 305.767 260.581 305.708 260.384 305.641C260.005 305.509 259.836 305.442 259.672 305.368C259.287 305.182 259.151 305.111 259.016 305.034C258.649 304.811 258.553 304.745 258.458 304.678C258.3 304.566 258.142 304.45 257.991 304.325C257.695 304.079 257.591 303.983 257.488 303.885C257.175 303.574 256.975 303.351 256.785 303.118C256.426 302.664 256.134 302.221 255.882 301.748L247.044 287.547L238.21 301.748C236.824 304.272 234.318 306 231.439 306C228.55 306 226.032 304.259 224.687 301.679L186.051 245.394C184.781 243.862 184 241.832 184 239.591C184 234.847 187.487 230.998 191.788 230.998C194.571 230.998 197.008 232.615 198.386 235.041L230.999 283.233L240.179 268.285C241.502 265.621 244.07 263.811 247.019 263.811C249.717 263.811 252.096 265.329 253.493 267.631L262.961 283.172L314.128 209.916C315.519 207.559 317.919 206 320.657 206C324.958 206 328.444 209.847 328.444 214.591C328.444 216.665 327.781 218.565 326.674 220.048L268.627 302.874Z" fill="black" stroke="black" stroke-width="10"/>
<path d="M117 395V255.5C117 218.502 131.697 183.02 157.859 156.859C184.02 130.697 219.502 116 256.5 116C293.498 116 328.98 130.697 355.141 156.859C381.303 183.02 396 218.502 396 255.5V395" stroke="black" stroke-width="27.9" stroke-linecap="round" stroke-linejoin="round"/>
<path d="M335.167 232.028L330.806 201.222L300 205.583" stroke="black" stroke-width="11" stroke-linecap="round" stroke-linejoin="round"/>
</svg>
